<svg xmlns="http://www.w3.org/2000/svg" viewBox="0 0 67.39 18.51"><defs><style>.cls-1{fill:#fff;}.cls-2{fill:#c3892f;}.cls-3{fill:#a8d140;}.cls-4{fill:#caec6f;}.cls-5{fill:#2a5201;}.cls-6{fill:#e5fea9;}</style></defs><title>Asset 2</title><g id="Layer_2" data-name="Layer 2"><g id="Layer_1-2" data-name="Layer 1"><path class="cls-1" d="M26.29,9.19,22.44,4.84V9.19H22V.9h.46V4.58L26.17.9h.64L22.92,4.71l4,4.48Z"/><path class="cls-1" d="M28,.9h.45V9.19H28Z"/><path class="cls-1" d="M40.9.9,38.2,9.19h-.5L35.24,1.45,32.78,9.19h-.5L29.57.9h.51l2.45,7.58L34.94.9h.6L38,8.48,40.41.9Z"/><path class="cls-1" d="M42.07.9h.45V9.19h-.45Z"/><path class="cls-1" d="M49.06,1.35H46.68V9.19h-.46V1.35H43.84V.89h5.22Z"/><path class="cls-1" d="M52.68,5.26V9.19h-.47V5.26L49.33.9h.56l2.56,3.88L55,.9h.57Z"/><path class="cls-1" d="M61.65,3.12a2.24,2.24,0,0,1-2.23,2.24H57.16V9.19h-.45V.9h2.71A2.23,2.23,0,0,1,61.65,3.12Zm-.46,0a1.77,1.77,0,0,0-1.81-1.78H57.16V4.9h2.22A1.75,1.75,0,0,0,61.19,3.13Z"/><path class="cls-1" d="M63.53,1.35V4.83h3.4v.44h-3.4V8.74h3.86v.45H63.08V.9h4.31v.45Z"/><path class="cls-1" d="M22.56,13.58h-.63v2.56H21.7V13.58h-.63v-.22h.63v-1h.23v1h.63Z"/><path class="cls-1" d="M25.29,13.36l-1.15,2.87-.52,1.3h-.24l.55-1.38-1.12-2.79h.25l1,2.51,1-2.51Z"/><path class="cls-1" d="M28.8,14.75a1.45,1.45,0,0,1-1.43,1.45,1.42,1.42,0,0,1-1.23-.71v2h-.22V13.36h.22V14a1.41,1.41,0,0,1,1.23-.7A1.44,1.44,0,0,1,28.8,14.75Zm-.23,0A1.22,1.22,0,1,0,27.35,16,1.2,1.2,0,0,0,28.57,14.75Z"/><path class="cls-1" d="M29.58,12.61a.21.21,0,1,1,.21.21A.22.22,0,0,1,29.58,12.61Zm.1.75h.22v2.78h-.22Z"/><path class="cls-1" d="M33.07,14.32v1.82h-.22v-1.8a.82.82,0,0,0-.81-.82.82.82,0,0,0-.82.82v1.8H31V13.36h.22v.38a1,1,0,0,1,1.85.58Z"/><path class="cls-1" d="M36.76,13.36V16.1a1.44,1.44,0,0,1-1.44,1.45A1.46,1.46,0,0,1,34,16.77l.2-.12a1.2,1.2,0,0,0,1.08.67,1.22,1.22,0,0,0,1.22-1.22v-.57a1.44,1.44,0,0,1-2.66-.78A1.45,1.45,0,0,1,36.54,14v-.61Zm-.22,1.39a1.22,1.22,0,0,0-2.44,0,1.22,1.22,0,0,0,2.44,0Z"/><path class="cls-1" d="M39.15,15.64l.22-.07a.74.74,0,0,0,.69.42.57.57,0,0,0,.62-.54c0-.34-.28-.46-.62-.6s-.78-.34-.78-.8a.75.75,0,0,1,.79-.74.81.81,0,0,1,.7.37l-.19.11a.57.57,0,0,0-.5-.27.52.52,0,0,0-.57.51c0,.35.28.47.63.61s.77.32.77.82a.78.78,0,0,1-.84.74A1,1,0,0,1,39.15,15.64Z"/><path class="cls-1" d="M44.57,14.75a1.45,1.45,0,0,1-1.42,1.45,1.4,1.4,0,0,1-1.23-.71v2H41.7V13.36h.22V14a1.4,1.4,0,0,1,1.23-.7A1.44,1.44,0,0,1,44.57,14.75Zm-.22,0A1.22,1.22,0,1,0,43.13,16,1.21,1.21,0,0,0,44.35,14.75Z"/><path class="cls-1" d="M45.45,14.76h0A1.21,1.21,0,0,0,46.66,16a1.23,1.23,0,0,0,1-.48l.2.1a1.44,1.44,0,1,1,.27-.89v.06Zm0-.21h2.4a1.22,1.22,0,0,0-2.4,0Z"/><path class="cls-1" d="M49,14.76h0a1.22,1.22,0,0,0,2.19.72l.2.1a1.42,1.42,0,0,1-1.17.61,1.45,1.45,0,1,1,0-2.89,1.44,1.44,0,0,1,1.44,1.39v.06Zm0-.21h2.39a1.21,1.21,0,0,0-2.39,0Z"/><path class="cls-1" d="M55.17,11.7v4.44h-.23V15.5a1.4,1.4,0,0,1-1.23.7,1.45,1.45,0,0,1,0-2.89,1.41,1.41,0,0,1,1.23.69V11.7ZM55,14.75a1.22,1.22,0,0,0-2.44,0,1.22,1.22,0,1,0,2.44,0Z"/><path class="cls-1" d="M58.91,13.58h-.64v2.56h-.22V13.58h-.64v-.22h.64v-1h.22v1h.64Z"/><path class="cls-1" d="M59.5,14.76h0a1.22,1.22,0,0,0,2.19.72l.2.1a1.41,1.41,0,0,1-1.17.61,1.45,1.45,0,1,1,0-2.89,1.44,1.44,0,0,1,1.44,1.39v.06Zm0-.21h2.39a1.21,1.21,0,0,0-2.39,0Z"/><path class="cls-1" d="M62.77,15.64l.22-.07a.77.77,0,0,0,.7.42.57.57,0,0,0,.62-.54c0-.34-.29-.46-.62-.6s-.78-.34-.78-.8a.74.74,0,0,1,.79-.74.81.81,0,0,1,.7.37l-.19.11a.59.59,0,0,0-.51-.27.52.52,0,0,0-.57.51c0,.35.29.47.63.61s.78.32.78.82a.78.78,0,0,1-.84.74A1,1,0,0,1,62.77,15.64Z"/><path class="cls-1" d="M66.43,13.58H65.8v2.56h-.23V13.58h-.63v-.22h.63v-1h.23v1h.63Z"/><circle class="cls-2" cx="9.25" cy="9.25" r="9.25"/><circle class="cls-3" cx="9.25" cy="9.25" r="8.75"/><polygon class="cls-4" points="9.26 2.55 9.48 8.28 12.16 3.21 9.88 8.47 14.5 5.07 10.16 8.82 15.79 7.76 10.26 9.26 15.79 10.75 10.16 9.69 14.5 13.44 9.88 10.04 12.16 15.3 9.48 10.23 9.26 15.96 9.03 10.23 6.34 15.3 8.63 10.04 4.01 13.44 8.35 9.69 2.71 10.75 8.25 9.26 2.71 7.76 8.35 8.82 4.01 5.07 8.63 8.47 6.34 3.21 9.03 8.28 9.26 2.55"/><path class="cls-5" d="M8.36,4.41a4.29,4.29,0,0,1-.12,1,4.4,4.4,0,0,1-.57-.79.36.36,0,0,1,.25-.44A.37.37,0,0,1,8.36,4.41Z"/><path class="cls-5" d="M6.35,5.28a4.69,4.69,0,0,1,.31.92,4.39,4.39,0,0,1-.86-.46.35.35,0,0,1,0-.5A.36.36,0,0,1,6.35,5.28Z"/><path class="cls-5" d="M4.91,6.93a4.26,4.26,0,0,1,.68.7,4.26,4.26,0,0,1-1,0,.36.36,0,0,1-.18-.47A.36.36,0,0,1,4.91,6.93Z"/><path class="cls-5" d="M4.33,9.05a4.07,4.07,0,0,1,.92.33,4,4,0,0,1-.9.38A.34.34,0,0,1,4,9.42.36.36,0,0,1,4.33,9.05Z"/><path class="cls-5" d="M4.73,11.21a4,4,0,0,1,1-.11,4.06,4.06,0,0,1-.64.74.36.36,0,0,1-.33-.63Z"/><path class="cls-5" d="M6,13a4.44,4.44,0,0,1,.83-.51,4.27,4.27,0,0,1-.26.94A.36.36,0,1,1,6,13Z"/><path class="cls-5" d="M8,14a4.21,4.21,0,0,1,.52-.82,4.11,4.11,0,0,1,.18,1A.36.36,0,1,1,8,14Z"/><path class="cls-5" d="M10.15,14.1a4.29,4.29,0,0,1,.12-1,4.4,4.4,0,0,1,.57.79.35.35,0,0,1-.25.43A.35.35,0,0,1,10.15,14.1Z"/><path class="cls-5" d="M12.16,13.23a4.69,4.69,0,0,1-.31-.92,4.39,4.39,0,0,1,.86.46.35.35,0,0,1,0,.5A.36.36,0,0,1,12.16,13.23Z"/><path class="cls-5" d="M13.6,11.57a4.27,4.27,0,0,1-.68-.69,4.26,4.26,0,0,1,1,0,.36.36,0,0,1,.18.47A.35.35,0,0,1,13.6,11.57Z"/><path class="cls-5" d="M14.18,9.46a4.07,4.07,0,0,1-.92-.33,4.12,4.12,0,0,1,.89-.38.34.34,0,0,1,.37.34A.36.36,0,0,1,14.18,9.46Z"/><path class="cls-5" d="M13.78,7.3a4,4,0,0,1-1,.11,4.06,4.06,0,0,1,.64-.74.36.36,0,0,1,.33.63Z"/><path class="cls-5" d="M12.48,5.53a4.08,4.08,0,0,1-.83.52,4.13,4.13,0,0,1,.26-.94.36.36,0,0,1,.5-.08A.35.35,0,0,1,12.48,5.53Z"/><path class="cls-5" d="M10.55,4.5a4.16,4.16,0,0,1-.53.82,4.19,4.19,0,0,1-.17-1,.36.36,0,0,1,.42-.28A.36.36,0,0,1,10.55,4.5Z"/><path class="cls-6" d="M9.25,6.62l.21.23a.59.59,0,0,0,.65.15l.29-.12.09.3a.57.57,0,0,0,.52.41l.3,0-.05.31a.6.6,0,0,0,.29.6l.27.15-.17.25a.59.59,0,0,0,0,.67l.17.25-.27.15a.6.6,0,0,0-.29.6l.05.31-.3,0a.57.57,0,0,0-.52.41l-.09.3-.29-.12a.59.59,0,0,0-.65.15l-.21.23-.2-.23a.59.59,0,0,0-.65-.15l-.29.12L8,11.33a.57.57,0,0,0-.52-.41l-.3,0,0-.31A.58.58,0,0,0,7,10l-.27-.15.17-.25a.59.59,0,0,0,0-.67l-.17-.25L7,8.52a.58.58,0,0,0,.28-.6l0-.31.3,0A.57.57,0,0,0,8,7.18l.09-.3L8.4,7a.59.59,0,0,0,.65-.15Z"/></g></g></svg>