<svg height="547.16" width="1722" xmlns="http://www.w3.org/2000/svg" viewBox="17 17 963.046 307.371">
    <path stroke="#000" stroke-width="4" fill="#fff" d="M18.526 20.685h960v300h-960z"/>
    <g stroke="#000" fill="none" stroke-width="4">
        <path d="M118.53 40.685h40v40h-40zm40 0h40v40h-40zm40 0h40v40h-40z"/>
        <path d="M238.53 40.685h40v40h-40zm60 0h40v40h-40zm80 0h40v40h-40zm40 0h40v40h-40zm60 0h40v40h-40zm80 0h40v40h-40zm40 0h40v40h-40zm60 0h40v40h-40zm80 0h40v40h-40zm-80 60.005h40v40h-40zm80 0h40v40h-40zm-80 40h40v40h-40zm80 0h40v40h-40zm-80 120h40v40h-40zm80 0h40v40h-40zm140-160h40v40h-40zm40 0h40v40h-40zm-120 40h40v40h-40zm80 0h40v40h-40zm40 0h40v80h-40zm-120 40h40v40h-40zm80 0h40v40h-40zm-80 40h40v40h-40zm80 0h40v40h-40zm-80 40h80v40h-80zm80 0h40v40h-40zm40-40h40v80h-40zm-880.004-120h40v40h-40zM78.526 100.69h40v40h-40zm40.004 0h40v40h-40zm40 0h40v40h-40zm40 0h40v40h-40z"/>
        <path d="M238.53 100.69h40v40h-40zm40 0h40v40h-40zm40 0h40v40h-40zm40 0h40v40h-40zm40 0h40v40h-40zm40 0h40v40h-40zm40 0h40v40h-40zm40 0h40v40h-40zm40 0h40v40h-40zm40 0h40v40h-40zm-560.004 40h60v40h-60zM98.526 140.69h40v40h-40zm40.004 0h40v40h-40zm40 0h40v40h-40z"/>
        <path d="M218.53 140.69h40v40h-40zm40 0h40v40h-40zm40 0h40v40h-40zm40 0h40v40h-40zm40 0h40v40h-40zm40 0h40v40h-40zm40 0h40v40h-40zm40 0h40v40h-40zm40 0h40v40h-40z"/>
        <path d="M578.508 140.688v39.998h-19.976v40.003h79.972v-80.001h-59.996z"/>
        <g>
            <path d="M38.526 180.69h60v40h-60zm80.004 0h40v40h-40zm40 0h40v40h-40zm40 0h40v40h-40z"/>
            <path d="M238.53 180.69h40v40h-40zm40 0h40v40h-40zm40 0h40v40h-40zm40 0h40v40h-40zm40 0h40v40h-40zm40 0h40v40h-40zm40 0h40v40h-40zm40 0h40v40h-40zm-420.004 0h20v40h-20zm40.004 40h40v40h-40zm40 0h40v40h-40zM218.53 220.69h40v40h-40zm40 0h40v40h-40zm40 0h40v40h-40zm40 0h40v40h-40zm40 0h40v40h-40zm40 0h40v40h-40zm40 0h40v40h-40zm40 0h40v40h-40zm40 0h100v40h-100zm-500.004 0h100v40h-100zm0 40h40v40h-40zM78.526 260.69h60v40h-60zm60.004 0h60v40h-60z"/>
            <path d="M198.53 260.69h240v40h-240zm240 0h60v40h-60zm60 0h60v40h-60zm60 0h40v40h-40zm40 0h40v40h-40zM38.526 40.685h40v40h-40zm660.004 0h40v40h-40zm0 100.005h40v40h-40zm-360-100.005h40v40h-40zm180 0h40v40h-40zm180 220.005h40v40h-40zm0-40h40v40h-40zm140 0h40v40h-40zm0-40h40v40h-40zm0-40h40v40h-40zm0-40h40v40h-40zm-40 0h40v40h-40zm-100 0h40v40h-40z"/>
        </g>
    </g>
    <g stroke="#000" stroke-width="4" fill="none">
        <path d="M798.53 40.685h160v40h-160z"/>
        <path d="M826.71 56.685h16v8h-16zm43.82 0h16v8h-16zm43.81 0h16v8h-16z"/>
    </g>
    <g font-weight="700" font-family="sans-serif" text-anchor="middle">
        <text font-size="14.111">
            <tspan y="116.146" x="58.526">~</tspan> <tspan y="133.785" x="58.526">`</tspan> <tspan y="116.146" x="98.526">!</tspan> <tspan y="133.785" x="98.526">1</tspan> <tspan y="116.146" x="138.526">@</tspan> <tspan y="133.785" x="138.526">2</tspan> <tspan y="116.146" x="178.526">#</tspan> <tspan y="133.785" x="178.526">3</tspan> <tspan y="116.146" x="218.526">$</tspan> <tspan y="133.785" x="218.526">4</tspan> <tspan y="116.146" x="258.526">%</tspan> <tspan y="133.785" x="258.526">5</tspan> <tspan y="116.146" x="298.526">^</tspan> <tspan y="133.785" x="298.526">6</tspan> <tspan y="116.146" x="338.526">&amp;</tspan> <tspan y="133.785" x="338.526">7</tspan> <tspan y="116.146" x="378.526">*</tspan> <tspan y="133.785" x="378.526">8</tspan> <tspan y="116.146" x="418.526">(</tspan> <tspan y="133.785" x="418.526">9</tspan> <tspan y="116.146" x="458.526">)</tspan> <tspan y="133.785" x="458.526">0</tspan> <tspan y="116.146" x="498.526">_</tspan> <tspan y="133.785" x="498.526">-</tspan> <tspan y="116.146" x="538.526">+</tspan> <tspan y="133.785" x="538.526">=</tspan> <tspan y="116.146" x="578.526">|</tspan> <tspan y="133.785" x="578.526">\</tspan> <tspan y="124.966" x="618.526">←</tspan>
        </text>
        <text font-size="14.111">
            <tspan y="164.966" x="68.526">Tab</tspan> <tspan y="164.966" x="118.526">Q</tspan> <tspan y="164.966" x="158.526">W</tspan> <tspan y="164.966" x="198.526">E</tspan> <tspan y="164.966" x="238.526">R</tspan> <tspan y="164.966" x="278.526">T</tspan> <tspan y="164.966" x="318.526">Y</tspan> <tspan y="164.966" x="358.526">U</tspan> <tspan y="164.966" x="398.526">I</tspan> <tspan y="164.966" x="438.526">O</tspan> <tspan y="164.966" x="478.526">P</tspan> <tspan y="156.146" x="518.526">{</tspan> <tspan y="173.785" x="518.526">[</tspan> <tspan y="156.146" x="558.526">}</tspan> <tspan y="173.785" x="558.526">]</tspan>
        </text>
        <text font-size="14.111">
            <tspan y="204.966" x="598.526">Enter</tspan> <tspan y="204.966" x="68.526">Caps</tspan> <tspan y="204.966" x="138.526">A</tspan> <tspan y="204.966" x="178.526">S</tspan> <tspan y="204.966" x="218.526">D</tspan> <tspan y="204.966" x="258.526">F</tspan> <tspan y="204.966" x="298.526">G</tspan> <tspan y="204.966" x="338.526">H</tspan> <tspan y="204.966" x="378.526">J</tspan> <tspan y="204.966" x="418.526">K</tspan> <tspan y="204.966" x="458.526">L</tspan> <tspan y="196.146" x="498.526">:</tspan> <tspan y="213.785" x="498.526">;</tspan> <tspan y="196.146" x="538.526">&quot;</tspan> <tspan y="213.785" x="538.526">&apos;</tspan>
        </text>
        <text font-size="14.111">
            <tspan y="244.966" x="158.526">Z</tspan> <tspan y="244.966" x="198.526">X</tspan> <tspan y="244.966" x="238.526">C</tspan> <tspan y="244.966" x="278.526">V</tspan> <tspan y="244.966" x="318.526">B</tspan> <tspan y="244.966" x="358.526">N</tspan> <tspan y="244.966" x="398.526">M</tspan> <tspan y="236.146" x="438.526">&lt;</tspan> <tspan y="253.785" x="438.526">,</tspan> <tspan y="236.146" x="478.526">&gt;</tspan> <tspan y="253.785" x="478.526">.</tspan> <tspan y="236.146" x="518.526">?</tspan> <tspan y="253.785" x="518.526">/</tspan> <tspan y="244.966" x="588.526">Shift</tspan> <tspan y="244.966" x="88.526">Shift</tspan>
        </text>
        <text font-size="14.111">
            <tspan y="284.966" x="58.526">Ctrl</tspan> <tspan y="284.966" x="168.526">Alt</tspan> <tspan y="284.966" x="468.526">Alt</tspan> <tspan y="284.966" x="618.526">Ctrl</tspan>
        </text>
        <text font-size="8.467">
            <tspan y="52.66" x="678.526">Print</tspan> <tspan y="63.244" x="678.526">Scrn</tspan> <tspan y="73.827" x="678.526">SysRq</tspan> <tspan y="57.952" x="758.526">Pause</tspan> <tspan y="68.535" x="758.526">Break</tspan> <tspan y="57.952" x="718.526">Scroll</tspan> <tspan y="68.535" x="718.526">Lock</tspan>
        </text>
        <text font-size="14.111">
            <tspan y="64.966" x="58.526">Esc</tspan> <tspan y="64.966" x="138.526">F1</tspan> <tspan y="64.966" x="178.526">F2</tspan> <tspan y="64.966" x="218.526">F3</tspan> <tspan y="64.966" x="258.526">F4</tspan> <tspan y="64.966" x="318.526">F5</tspan> <tspan y="64.966" x="358.526">F6</tspan> <tspan y="64.966" x="398.526">F7</tspan> <tspan y="64.966" x="438.526">F8</tspan> <tspan y="64.966" x="498.526">F9</tspan> <tspan y="64.966" x="538.526">F10</tspan> <tspan y="64.966" x="578.526">F11</tspan> <tspan y="64.966" x="618.526">F12</tspan>
        </text>
        <text font-size="14.111">
            <tspan y="284.966" x="678.526">←</tspan> <tspan y="284.966" x="758.526">→</tspan> <tspan y="284.966" x="718.526">↓</tspan> <tspan y="244.966" x="718.526">↑</tspan>
        </text>
        <text font-size="14.111">
            <tspan y="124.966" x="898.526">*</tspan> <tspan y="124.966" x="938.526">-</tspan> <tspan y="164.966" x="818.526">7</tspan> <tspan y="164.966" x="898.526">9</tspan> <tspan y="184.966" x="938.526">+</tspan> <tspan y="204.966" x="818.526">4</tspan> <tspan y="204.966" x="898.526">6</tspan> <tspan y="244.966" x="818.526">1</tspan> <tspan y="244.966" x="898.526">3</tspan> <tspan y="284.966" x="838.526">0</tspan> <tspan y="284.966" x="898.526">.</tspan> <tspan y="244.966" x="858.526">2</tspan> <tspan y="204.966" x="858.526">5</tspan> <tspan y="164.966" x="858.526">8</tspan> <tspan y="124.966" x="858.526">/</tspan>
        </text>
        <text font-size="8.467">
            <tspan y="123.243" x="678.526">Insert</tspan> <tspan y="117.952" x="758.526">Page</tspan> <tspan y="128.535" x="758.526">Up</tspan> <tspan y="163.243" x="678.526">Delete</tspan> <tspan y="157.952" x="758.526">Page</tspan> <tspan y="168.535" x="758.526">Down</tspan> <tspan y="163.243" x="718.526">End</tspan> <tspan y="123.243" x="718.526">Home</tspan>
        </text>
        <text font-size="8.467">
            <tspan y="263.243" x="938.526">Enter</tspan> <tspan y="117.952" x="818.526">Num</tspan> <tspan y="128.535" x="818.526">Lock</tspan> <tspan y="173.827" x="818.525">Home</tspan> <tspan y="173.827" x="898.525">Pg Up</tspan> <tspan y="253.827" x="818.525">End</tspan> <tspan y="253.827" x="898.525">Pg Dn</tspan> <tspan y="293.827" x="838.525">Ins</tspan> <tspan y="293.827" x="898.525">Del</tspan>
        </text>
        <text font-size="14.111">
            <tspan y="215.078" x="818.525"></tspan> <tspan y="215.078" x="898.525"></tspan> <tspan y="256.201" x="858.525"></tspan> <tspan y="176.201" x="858.525"></tspan>
        </text>
    </g>
</svg>
