<svg xmlns="http://www.w3.org/2000/svg" width="900" height="300" version="1">
    <g style="text-align:center" font-size="24" font-weight="700" text-anchor="middle" font-family="Helvetica">
        <path d="M0 60h90v60h15v60h30v60H90v60H0V60zm150 180h90v60h-90v-60zm450 0h90v60h-90v-60zM780 0h120v300h-90v-60h-75v-60h30v-60h45V60h-30V0z" fill-opacity=".125"/>
        <g fill-opacity=".063">
            <path d="M90 240h60v60H90v-60z" fill-rule="evenodd"/>
            <path d="M690 240h120v60H690v-60z"/>
        </g>
        <path d="M846 17.5h-43" stroke="#000" stroke-width="3"/>
        <path d="M809 25V10l-15 7.5 15 7.5z"/>
        <path d="M82.5 82.5H54" stroke="#000" stroke-width="3"/>
        <path d="M60 90V75l-15 7.5L60 90z"/>
        <path d="M45 75v15m0 7.5h28.5" stroke="#000" stroke-width="3"/>
        <path d="M67.5 90v15l15-7.5-15-7.5z"/>
        <path d="M82.5 105V90" stroke="#000" stroke-width="3"/>
        <path d="M27 147l-11 15h7v8h8v-8h7l-11-15zm-1.031 4.281H28l3.125 8.625H29.25l-.594-1.781h-3.343l-.563 1.781h-1.875l3.094-8.625zM27 153l-1.219 3.656h2.407L27 153zm766.5 19.5v-15l-15 7.5 15 7.5z"/>
        <path d="M816 150v15h-30" fill="none" stroke="#000" stroke-width="3"/>
        <path d="M27 207l-11 15h7v7h8v-6.875l7-.125-11-15zm734 0l-11 15h7v7h8v-7h7l-11-15z" fill="none" stroke="#000" stroke-width="2"/>
        <g font-size="16">
            <flowRoot xml:space="preserve">
                <flowRegion>
                    <path d="M765 128h69v22h-69z"/>
                </flowRegion>
                <flowPara>
                    Enter
                </flowPara>
            </flowRoot>
            <flowRoot xml:space="preserve">
                <flowRegion>
                    <path d="M90 251h60v49H90z"/>
                </flowRegion>
                <flowPara>
                    Win
                </flowPara>
                <flowPara>
                    Key
                </flowPara>
            </flowRoot>
            <flowRoot xml:space="preserve">
                <flowRegion>
                    <path d="M810 262h56v38h-56z"/>
                </flowRegion>
                <flowPara>
                    Ctrl
                </flowPara>
            </flowRoot>
        </g>
        <flowRoot xml:space="preserve" fill="red">
            <flowRegion>
                <path d="M705 124h30v26h-30z"/>
            </flowRegion>
            <flowPara>
                &quot;
            </flowPara>
        </flowRoot>
        <flowRoot xml:space="preserve">
            <flowRegion>
                <path d="M120 34h30v26h-30z"/>
            </flowRegion>
            <flowPara>
                2
            </flowPara>
        </flowRoot>
        <flowRoot xml:space="preserve">
            <flowRegion>
                <path d="M240 34h30v26h-30z"/>
            </flowRegion>
            <flowPara>
                4
            </flowPara>
        </flowRoot>
        <flowRoot xml:space="preserve">
            <flowRegion>
                <path d="M420 4h30v26h-30z"/>
            </flowRegion>
            <flowPara>
                &amp;
            </flowPara>
        </flowRoot>
        <flowRoot xml:space="preserve">
            <flowRegion>
                <path d="M540 4h30v26h-30z"/>
            </flowRegion>
            <flowPara>
                (
            </flowPara>
        </flowRoot>
        <flowRoot xml:space="preserve">
            <flowRegion>
                <path d="M660 4h30v26h-30z"/>
            </flowRegion>
            <flowPara>
                _
            </flowPara>
        </flowRoot>
        <flowRoot xml:space="preserve">
            <flowRegion>
                <path d="M90 64h30v26H90z"/>
            </flowRegion>
            <flowPara>
                Q
            </flowPara>
        </flowRoot>
        <flowRoot xml:space="preserve">
            <flowRegion>
                <path d="M210 64h30v26h-30z"/>
            </flowRegion>
            <flowPara>
                E
            </flowPara>
        </flowRoot>
        <flowRoot xml:space="preserve">
            <flowRegion>
                <path d="M330 64h30v26h-30z"/>
            </flowRegion>
            <flowPara>
                T
            </flowPara>
        </flowRoot>
        <flowRoot xml:space="preserve">
            <flowRegion>
                <path d="M450 64h30v26h-30z"/>
            </flowRegion>
            <flowPara>
                U
            </flowPara>
        </flowRoot>
        <flowRoot xml:space="preserve">
            <flowRegion>
                <path d="M570 64h30v26h-30z"/>
            </flowRegion>
            <flowPara>
                O
            </flowPara>
        </flowRoot>
        <flowRoot xml:space="preserve">
            <flowRegion>
                <path d="M690 64h30v26h-30z"/>
            </flowRegion>
            <flowPara>
                {
            </flowPara>
        </flowRoot>
        <flowRoot xml:space="preserve">
            <flowRegion>
                <path d="M810 64h45v26h-45z"/>
            </flowRegion>
            <flowPara>
                |
            </flowPara>
        </flowRoot>
        <flowRoot xml:space="preserve">
            <flowRegion>
                <path d="M105 124h30v26h-30z"/>
            </flowRegion>
            <flowPara>
                A
            </flowPara>
        </flowRoot>
        <flowRoot xml:space="preserve">
            <flowRegion>
                <path d="M225 124h30v26h-30z"/>
            </flowRegion>
            <flowPara>
                D
            </flowPara>
        </flowRoot>
        <flowRoot xml:space="preserve">
            <flowRegion>
                <path d="M345 124h30v26h-30z"/>
            </flowRegion>
            <flowPara>
                G
            </flowPara>
        </flowRoot>
        <flowRoot xml:space="preserve">
            <flowRegion>
                <path d="M465 124h30v26h-30z"/>
            </flowRegion>
            <flowPara>
                J
            </flowPara>
        </flowRoot>
        <flowRoot xml:space="preserve">
            <flowRegion>
                <path d="M585 124h30v26h-30z"/>
            </flowRegion>
            <flowPara>
                L
            </flowPara>
        </flowRoot>
        <flowRoot xml:space="preserve">
            <flowRegion>
                <path d="M135 184h30v26h-30z"/>
            </flowRegion>
            <flowPara>
                Z
            </flowPara>
        </flowRoot>
        <flowRoot xml:space="preserve">
            <flowRegion>
                <path d="M255 184h30v26h-30z"/>
            </flowRegion>
            <flowPara>
                C
            </flowPara>
        </flowRoot>
        <flowRoot xml:space="preserve">
            <flowRegion>
                <path d="M375 184h30v26h-30z"/>
            </flowRegion>
            <flowPara>
                B
            </flowPara>
        </flowRoot>
        <flowRoot xml:space="preserve">
            <flowRegion>
                <path d="M495 184h30v26h-30z"/>
            </flowRegion>
            <flowPara>
                M
            </flowPara>
        </flowRoot>
        <flowRoot xml:space="preserve">
            <flowRegion>
                <path d="M615 184h30v26h-30z"/>
            </flowRegion>
            <flowPara>
                &gt;
            </flowPara>
        </flowRoot>
        <g fill="#00f">
            <flowRoot xml:space="preserve">
                <flowRegion>
                    <path d="M90 34h30v26H90z"/>
                </flowRegion>
                <flowPara>
                    ¡
                </flowPara>
            </flowRoot>
            <flowRoot xml:space="preserve">
                <flowRegion>
                    <path d="M210 34h30v26h-30z"/>
                </flowRegion>
                <flowPara>
                    ³
                </flowPara>
            </flowRoot>
            <flowRoot xml:space="preserve">
                <flowRegion>
                    <path d="M330 34h30v26h-30z"/>
                </flowRegion>
                <flowPara>
                    €
                </flowPara>
            </flowRoot>
            <flowRoot xml:space="preserve">
                <flowRegion>
                    <path d="M450 34h30v26h-30z"/>
                </flowRegion>
                <flowPara>
                    ½
                </flowPara>
            </flowRoot>
            <flowRoot xml:space="preserve">
                <flowRegion>
                    <path d="M570 34h30v26h-30z"/>
                </flowRegion>
                <flowPara>
                    ‘
                </flowPara>
            </flowRoot>
            <flowRoot xml:space="preserve">
                <flowRegion>
                    <path d="M690 34h30v26h-30z"/>
                </flowRegion>
                <flowPara>
                    ¥
                </flowPara>
            </flowRoot>
            <flowRoot xml:space="preserve">
                <flowRegion>
                    <path d="M120 94h30v26h-30z"/>
                </flowRegion>
                <flowPara>
                    ~
                </flowPara>
            </flowRoot>
            <flowRoot xml:space="preserve">
                <flowRegion>
                    <path d="M240 94h30v26h-30z"/>
                </flowRegion>
                <flowPara>
                    ~
                </flowPara>
            </flowRoot>
            <flowRoot xml:space="preserve">
                <flowRegion>
                    <path d="M360 94h30v26h-30z"/>
                </flowRegion>
                <flowPara>
                    ~
                </flowPara>
            </flowRoot>
            <flowRoot xml:space="preserve">
                <flowRegion>
                    <path d="M480 94h30v26h-30z"/>
                </flowRegion>
                <flowPara>
                    ~
                </flowPara>
            </flowRoot>
            <flowRoot xml:space="preserve">
                <flowRegion>
                    <path d="M600 94h30v26h-30z"/>
                </flowRegion>
                <flowPara>
                    ~
                </flowPara>
            </flowRoot>
            <flowRoot xml:space="preserve">
                <flowRegion>
                    <path d="M720 94h30v26h-30z"/>
                </flowRegion>
                <flowPara>
                    «
                </flowPara>
            </flowRoot>
            <flowRoot xml:space="preserve">
                <flowRegion>
                    <path d="M135 154h30v26h-30z"/>
                </flowRegion>
                <flowPara>
                    ~
                </flowPara>
            </flowRoot>
            <flowRoot xml:space="preserve">
                <flowRegion>
                    <path d="M255 154h30v26h-30z"/>
                </flowRegion>
                <flowPara>
                    ~
                </flowPara>
            </flowRoot>
            <flowRoot xml:space="preserve">
                <flowRegion>
                    <path d="M375 154h30v26h-30z"/>
                </flowRegion>
                <flowPara>
                    ~
                </flowPara>
            </flowRoot>
            <flowRoot xml:space="preserve">
                <flowRegion>
                    <path d="M495 154h30v26h-30z"/>
                </flowRegion>
                <flowPara>
                    ~
                </flowPara>
            </flowRoot>
            <flowRoot xml:space="preserve">
                <flowRegion>
                    <path d="M615 154h30v26h-30z"/>
                </flowRegion>
                <flowPara>
                    ~
                </flowPara>
            </flowRoot>
            <flowRoot xml:space="preserve">
                <flowRegion>
                    <path d="M735 154h30v26h-30z"/>
                </flowRegion>
                <flowPara>
                    ´
                </flowPara>
            </flowRoot>
            <flowRoot xml:space="preserve">
                <flowRegion>
                    <path d="M225 214h30v26h-30z"/>
                </flowRegion>
                <flowPara>
                    ~
                </flowPara>
            </flowRoot>
            <flowRoot xml:space="preserve">
                <flowRegion>
                    <path d="M345 214h30v26h-30z"/>
                </flowRegion>
                <flowPara>
                    ~
                </flowPara>
            </flowRoot>
            <flowRoot xml:space="preserve">
                <flowRegion>
                    <path d="M465 214h30v26h-30z"/>
                </flowRegion>
                <flowPara>
                    ~
                </flowPara>
            </flowRoot>
            <flowRoot xml:space="preserve">
                <flowRegion>
                    <path d="M585 214h30v26h-30z"/>
                </flowRegion>
                <flowPara>
                    ~
                </flowPara>
            </flowRoot>
            <flowRoot xml:space="preserve">
                <flowRegion>
                    <path d="M705 214h30v26h-30z"/>
                </flowRegion>
                <flowPara>
                    ¿
                </flowPara>
            </flowRoot>
        </g>
        <g fill="none" stroke="#000">
            <path d="M60 0v60m60-60v60m60-60v60m60-60v60m60-60v60m60-60v60m60-60v60m60-60v60m60-60v60m60-60v60m60-60v60m60-60v60m60-60v60M90 60v60m60-60v60m60-60v60m60-60v60m60-60v60m60-60v60m60-60v60m60-60v60m60-60v60m60-60v60m60-60v60m60-60v60m60-60v60m-705 0v60m60-60v60m60-60v60m60-60v60m60-60v60m60-60v60m60-60v60m60-60v60m60-60v60m60-60v60m60-60v60m60-60v60m-630 0v60m60-60v60m60-60v60m60-60v60m60-60v60m60-60v60m60-60v60m60-60v60m60-60v60m60-60v60m60-60v60m-645 0v60m60-60v60m90-60v60m360-60v60m90-60v60m60-60v60m60-60v60M0 60h900M0 120h900M0 180h900M0 240h900M0 0h900v300H0z"/>
        </g>
    </g>
</svg>
